<svg id="Layer_1" data-name="Layer 1" xmlns="http://www.w3.org/2000/svg" viewBox="0 0 3014 1549.84"><defs><style>.cls-1{fill:#eee;}.cls-1,.cls-12,.cls-2,.cls-3,.cls-4,.cls-5,.cls-6{stroke:#000;}.cls-1,.cls-2,.cls-3,.cls-4,.cls-5,.cls-6{stroke-miterlimit:10;stroke-width:2px;}.cls-2,.cls-9{fill:#74c476;}.cls-3,.cls-8{fill:#238b45;}.cls-10,.cls-4{fill:#bae4b3;}.cls-11,.cls-5,.cls-6{fill:#edf8e9;}.cls-6{fill-rule:evenodd;}.cls-7{fill:#ddd;}.cls-12{fill:none;stroke-linejoin:round;}.cls-13{isolation:isolate;font-size:23.19px;fill:#555;font-family:Helvetica;}.cls-14{font-size:28px;font-family:MyriadPro-Regular, Myriad Pro;}.cls-15{letter-spacing:0.01em;}.cls-16{letter-spacing:-0.04em;}.cls-17{letter-spacing:-0.07em;}.cls-18{letter-spacing:-0.01em;}.cls-19{letter-spacing:0em;}.cls-20{letter-spacing:0em;}.cls-21{letter-spacing:-0.01em;}.cls-22{letter-spacing:-0.02em;}.cls-23{letter-spacing:0.01em;}.cls-24{letter-spacing:-0.01em;}.cls-25{letter-spacing:0em;}</style></defs><g id="naturalearth_lowres" data-name="naturalearth lowres"><path class="cls-1" d="M1996,819.41v5l-5.32,2.54-5.36,2.12-1.06-3.78,4.19-2.13,2.64-.55Zm-15.66,14.67,2-1.66,2.91,3-1.4,5.36-5.17,1.38-4.6-1.25-.83-4.52,3.24-3.51Zm-2994.6-15.14-1.06,4.9-.68.55v-5Z" transform="translate(1017 -121.97)"/><path class="cls-2" d="M1083.48,798.17l3.09,1.91L1152.14,836l1.22,10.18,25.94,17.65-8.4,21.71,1.14,10,11.58,6.36.49,4.62-5,10.65,1.06,5.33L1179,931l6.36,11,7.42,17.42,6.69,3.82L1185,973.53l-19.74,6.84-10.85-.32-6.44,5.33-12.56.39-4.73,2.23L1109,983.07l-13.62,1.43-5.05-24-6.12-8.19-3.67-4.85-17.7-3.34-10.27-5.25-11.5-2.94-7.18-3-7.58-4.45-9.79-22.19-10.44-9.86-3.67-10.26,1.88-9.15L1001,860.76l7.42-.88,6.6-6.36,7-9.22,4.48-3.66-.16-5.73-3.91-4-1.06-7h0l5.21-2.23,1.06-10.34-7.17-9.94,6.36-2.14,19.82.23Z" transform="translate(1017 -121.97)"/><path class="cls-1" d="M314,293.9v1.19l-.33,3.42-.08,26.64-59.28-.87.57,45.09-17,1.59-4.4,9.07,3.42,25.44-70.78-.15-3.92,5.88.74-7.4h.32l40.7-1.43,2.2-6.36,7.42-7.87,6-24.34,25.12-19,8.48-22.27,5.63-1.27,5.95-13.76,15.17-1.91,6.53,2.31h8.23l5.79-4,11.18-.64-.41-9.38Z" transform="translate(1017 -121.97)"/><path class="cls-3" d="M1001,860.76l3.26,16.22-1.88,9.15,3.67,10.26,10.44,9.86,9.79,22.19-7.1-1.83-24.3,3-4.81,2.07L984.88,943l4.08,7.79-3.18,20.84-2.29,17.73,4.9,3.1,12.64,6.84,5-3.18,1.47,19-13.78-.16-7.42-9.7-6.69-7.48-13.86-2.46-4.08-9.23-11,5.57-14.52-2.47-6-8-11.42-1.67-8.48.48-1.06-5.49-6.2-.48-8.24-1-11.25,2.62-7.83-.39-4.48,1.59,1-20.92-6-6.6-1.3-10.81,2.61-10.66L863.7,921l-.33-11.13-21.94.15,1.63-6.36-9.21.08-1,3.1-11.25.64-4.49,10.34-2.77,4.37-10-2.46-6,2.46-12,1.43-6.94-9.22-4.15-5.73-5.14-10.57L765.75,885l-53.33-.23-6.36,2.14-5.22-.32-7.5,2.31-2.53-5.41,4.65-1.91L696,874l2.93-4.53,6.61-3.74,4.73,1.83,6.2-6.76,9.78.16,1.23,5,6.68,3.1,10.69-11,10.52-8.59,4.56-5.65-.57-14.47,7.83-17.18,8.24-9.07,11.9-8.51,2.12-5.64.41-6.44,3-6.13-1-9.94,2.28-15.66,3.51-11,5.38-9.46,1.06-10.66,1.63-12.25,7.1-9,9.62-5.65,14.93,6,11.49,6.52L862.15,707l13.45,3.42,5.47-10.66,2.44-1.35,8.24,1.75,20.14-8.75,7.1,3.74,5.87-.56,2.69-4.29,6.77-1.51,13.62,1.82,11.58.48,6-1.91L976.4,703.7l8.15,2.14,4.82-2.94,8.4,1.11,10-3.73,4.32,7.55,15.9,11.69-1.14,20.68,7.26,2.38-5.79,6.21-6.93,4.69-6.94,9.22-3.83,8.2-1,14.15-4.16,6.68-.16,13.36-5.22,4.85-.65,10.5L997,821.79l-1.63,9.7,4.57,8Z" transform="translate(1017 -121.97)"/><path class="cls-2" d="M1222.36,811.06l-10.69-14.48-.24-64.25,15.82-20,5-5.56,11.58-.32L1259.87,694l23.57-.71,51-53,12.64-14.71,8.15-10.81v-27l.09-7.24.08-.32,5.79-.32,8.32-2.62,9.62-1.83,8.56-6h6.85l.41,4.85-1.71,10.26.08,9.3-3.83,6.36-5.06,19L1375.75,639l-11.17,22.51-15.49,25.84L1333.67,707l-21.28,24-18.11,14.32-27.07,17.49-16.8,13.36-19.82,21.4-4.16,9.3Z" transform="translate(1017 -121.97)"/><path class="cls-2" d="M1179.3,863.86l-25.94-17.65L1152.14,836l-65.57-35.95-3.09-1.91-.17-18.69,5.22-7.15,8.89-11.69,6.52-12.81L1096,727.55l-2.12-8.82-8.56-12.25,11.09-10.5,12.23-11.61,9.46,2.94v9.86l6.12,5.81h12.64l22.84,15,5.7.16,4.24-.48,4,2,12.07,1.43,5.38-7.39,16.48-7.32,7.25,6h12.4l-15.82,20,.24,64.25,10.69,14.48-12.64,7.07-4.49,7.32-6.77,1.35-2.53,12.41-5.87,7.08-3.5,11.77Z" transform="translate(1017 -121.97)"/><path class="cls-4" d="M914.75,636.34,901,628.62l-6.28-5.09-1.14-5.48,2.94-7.32-.08-7.16L886,592.52l-2-7.56.24-4.21-6.68-5.25-.17-10.18-3.75-6.84-6.36,1L869,553l4.64-7.31-2-7.32,5.95-5.41-3.75-4.13L878.62,518l8.24-13,15.57,1.27-.89-70,.24-7.39,20.8-.08V393.63h214.47l5.88,17.25-4,3.18,2.61,18.14,6.61,21.07,6.93,4.37,9.86,6.52-9.13,10-13.29,2.94-5.71,5.41L1135,494.23l-7.75,25.92,1.87,7-2.85,15.19L1119,559.68,1108,568.42l-7.75,13.44-1.79,7.24-8.56,4.93-5.38,18.45.24,15.83-.16-13.76-2.53-.32.33-8.75-2.21-6.12-9.29-6.92-2.21-12.72,2.21-13-8.4-1.27-1.23,4-10.84.87,4.32,5.17,1.55,10.58-10,9.7-9,12.72-9.3,1.75L1012.85,600l-6.77,3.66-1.87,5.09-9.3,3.34-.65,3.66h-18l-2.45-3.66-13-.55-6.52,3-5-1.51L940,602.7l-3.1-4.85-13.05,2.46-5,8.19-4.64,15.75-6.2,3.26-5.55,2Z" transform="translate(1017 -121.97)"/><path class="cls-5" d="M901.54,436.25l.89,70L886.86,505l-8.24,13-4.81,10.82,3.75,4.13-5.95,5.41,2,7.32L869,553l-1.8,6.53,6.36-1,3.75,6.84.17,10.18,6.68,5.25-.24,4.21-11.42,3-9.21,7.15-13,19.25-17,8.11-17.46-1-5.13,1.59,1.79,6.2-9.46,6.2-7.66,6.84-22.76,6.76-4.48-4-3-.4-3.34,4.53-14.93,1.35,2.86-4.77L744,633.63l-2.53-7.31-7.91-2.94L722.86,613l3.91-8.27,8.24,1.75,5.14-1.28,10.11.24-9.87-16.06.65-11.69L739.82,566l-7.18-11.3,1.8-8.35L722.86,546l.08-11.3-7.59-6.52L723.18,505l23.08-16.62,1-23,6.93-35.79,3.92-7.55-7.51-6-.32-5.56-6.77-4.62-4.4-27.43,18.26-9.63,72.09,33.8Z" transform="translate(1017 -121.97)"/><path class="cls-6" d="M766.08,1285.19l8.64-8.75,7.18,4.85,3,7.56,8.15,1.27,11.34,3.34,9.7-1.35,16.15-9V1218l4.89,2.7,10.69,16.7-1.64,10.74,4.08,6.2,12.89-1.75,9.05-7.87,8.56-5.33,4.41-8.43,8.89-4.13,7.58,2.14,8.64,4.93,14.68.88,11.58-4.06,1.8-5.49,3.18-8.43,9.87-1.43,5.46-6.6,6-11.77,16.23-13.2,25.61-13,7.34.24,8.81,2.94,6-2.07,9.62,1.75,8.65,24.81,4.73,12.49-3.26,19.64,1.55,6.36-9.06-3.26-5.3,1.28-1.63,5.17-5,6.6.16,6,10.76,9.62,10.61-1.91,3.67-7.87,13.7.16-4.49,12.8-2.12,14.72-4.73,8-12.31,8.91-3.51,2.54-7.67,8.91-5,9.06-10.28,12.65-20.39,18.21-12.8,10.58-13.62,8L948.18,1374l-9.21.87-2.29,4.93-11-2.62-9,3.34-19.57-3.42-10.93,2.15-7.5-.88L860,1385.31l-15.42,2.78-11.17,6.68-8.24.48-7.58-6.36-6.12-.32-7.83-7.87-.81,2.46-2.45-4.69.08-10.34-5.87-11.85,5.87-3.18-.49-13.52L788.18,1323l-9-15h-.08Zm228.42,6.68-7.91-5.49-8.48,3.66-9.78,6.84-9.63,11.21,13.54,13.52,6.44-1.75,3.35-5.65,10.11-2.7,3-5.81,5.54-8.5Z" transform="translate(1017 -121.97)"/><path class="cls-4" d="M994.5,1291.87l6.2,5.33-5.54,8.5-3,5.81-10.11,2.7-3.35,5.65-6.44,1.75-13.54-13.52,9.63-11.21,9.78-6.84,8.48-3.66Z" transform="translate(1017 -121.97)"/><path class="cls-4" d="M1034.46,1173.69l-9.62-1.75-6,2.07-8.81-2.94-7.34-.24-11.5-7.95-14-2.71-5.3-11.21v-6.2l-7.75-1.91-20.46-19.33-5.71-10.18-3.59-3.18-7-14.07,20.22,1.91,5.87,2.06,6.12-.39,10-11.46,15.66-14.47,6.52-1.43,2.2-6.12,10.28-7,13.7-2.39,1.14,6.6,15.09-.4,8.4,3.74,3.91,4.38,8.56,1.27,9.38,5.64.08,22.35-3.5,12.17-.82,13.2,2.94,5.25-2,10.34-2.77,1.59-4.73,12.72Z" transform="translate(1017 -121.97)"/><path class="cls-5" d="M1002.66,1170.83l-25.61,13L960.82,1197l-6,11.77-5.46,6.6-9.87,1.43-3.18,8.43-1.8,5.49L923,1234.77l-14.68-.88-8.64-4.93-7.58-2.14-8.89,4.13-4.41,8.43-8.56,5.33-9.05,7.87-12.89,1.75-4.08-6.2,1.64-10.74-10.69-16.7-4.89-2.7v-51.46l17.86-.55.49-62.83,13.45-.55,27.9-6.21,6.93,7.32,11.5-6.92,5.46-.08,10.19-4,3.27,1.35,7,14.07,3.59,3.18,5.71,10.18,20.46,19.33,7.75,1.91v6.2l5.3,11.21,14,2.71Z" transform="translate(1017 -121.97)"/><path class="cls-5" d="M830.26,1218v65.13l-16.15,9-9.7,1.35-11.34-3.34-8.15-1.27-3-7.56-7.18-4.85-8.64,8.75-13.46-13.36-7-12.89-4-17.09L737.13,1229l-6-27.12-.4-21.15-2.37-9.54-7-7.32-9.3-14.55-9.54-21.16-3.92-11L683.88,1100l-1.15-13.52,8.73-3.42,10.76-2.94,11.75.48,10.76,8,2.78-1.19,73.23-.8L813.3,1095l43.79,2.47,33.19-7.16,14.84-4.06,11.67,1,7.17,4,.08,1.44-10.19,4-5.46.08-11.5,6.92-6.93-7.32-27.9,6.21-13.45.55-.49,62.83-17.86.55Z" transform="translate(1017 -121.97)"/><path class="cls-2" d="M168.47,541.78,161.05,528,152,521.74l8-3.34,8.73-12.4,4.32-9,6.2-5.65,9,1.51L197,489l10.11-.16,8.64,5.17,12,4.69,10.93,13,11.91,12.09.81,11L255,544.8l6.77,4.93,1.55,6.84-.82,5.49-2.61,1L250,561.66l-1.38,2-4,.4-13-4.3-8.73-.23-33.44-.72-4.81,2-5.95-.56-9.62,2.86-2.94-13.51,16.47.39,4.33-2.46,3.26-.16,6.68-4.06,7.75,3.66,7.83.32,7.83-3.9-3.67-5.09-5.95,3-5.63-.08-7.1-4.38-5.7.32-4.08,4.14Z" transform="translate(1017 -121.97)"/><path class="cls-2" d="M262.5,562.06l.82-5.49-1.55-6.84L255,544.8l-3.59-10.1-.81-11,6.11-3.18,3-10.42,5.71-.4,12.64,4.93,10.19-3.5,7,1.2,2.69-4,72.5-.24,4.07-12.32-3.18-2.15-8.72-76.11-8.73-76.1,27.73-.32,60.92,38.49,61,38.49,4.32,8.19,11.25,5.09,8.4,2.86.17,11.22,20.06-1.75.08,40.63-10,11.77L536.35,507l-16,2.78-24.71,1.59L489,517.53l-11.58.71-11.58.08L461.32,515l-9.95,2.47-17,7.31L431,530.25l-14,8-2.45,4.54-7.58,3.57-8.73-2.38-5,4.29-2.61,12.09-14.35,14.63.4,6-5,7.47,1.22,10.18-7.42,2.63-4.24,2.22-2.77-7.55-5.22,2-3.18-.32-3.35,5.17-13.94-.16-5-2.63-2.36,1.6-5.55-5.09,1-5.25-2.28-2.07-3.83,1.75.73-5.73,3.67-4.53-7.42-7.4-2.12-4.85-4-3.89L302,564l-4.32,2.46-5.79,2.39-5,3.82-7.75-1.43-5.06-4.46-2.93-.63-4.73,2.38h-2.86Z" transform="translate(1017 -121.97)"/><path class="cls-5" d="M162.19,411.2l3.92-5.88,70.78.15L233.47,380l4.4-9.07,17-1.59-.57-45.09,59.28.87.08-26.64,68,42.63-27.73.32,8.73,76.1,8.72,76.11,3.18,2.15-4.07,12.32-72.5.24-2.69,4-7-1.2-10.19,3.5-12.64-4.93-5.71.4-3,10.42-6.11,3.18-11.91-12.09-10.93-13-12-4.69-8.64-5.17L197,489l-8.81,3.89-9-1.51L173,497l-1.63-9.54,5.06-8.67,2.28-16.62-2-17.42L174.59,436l1.79-8.82-4.73-8.35Z" transform="translate(1017 -121.97)"/><path class="cls-2" d="M519.31,671.09l-15,2.07L499.9,661l.81-40.48L497,616.85l-.65-8.66-6.28-6.13-5.55-5.25,2.29-9.22,6.28-2.07,3.67-7.63,8.81-1.67,4-5.25,6-5.17,6.44-.08,13.78,10.18-.65,5.8,4.08,10.5-3.59,7.08,1.87,4.77L528.85,615l-5.55,5.4-3.42,11.14.4,11.21Z" transform="translate(1017 -121.97)"/><path class="cls-2" d="M739.09,378.36l4.4,27.43,6.77,4.62.32,5.56,7.51,6-3.92,7.55-6.93,35.79-1,23L723.18,505l-7.83,23.22,7.59,6.52-.08,11.3,11.58.39-1.8,8.35-5,1-.57,5.65-3.43.39-12.23-19.32-4.24-.72L693,551.56l-14-5.09-9.7-1-5.22,2.47-10.6-.56-10.69,7.55-9.21.4-21.86-9.14-8.56,4.37-9.22-.32-6.76-6.68L569.05,537l-19.49,2.07-4.65,3.82L542.3,553l-5.13,7.16-1.31,15.75-13.78-10.18-6.44.08-6,5.17.41-12.09-20.88-4.06-.57-8.51-10.19-11.53-2.37-8,1.39-8.51,11.58-.71,6.69-6.21,24.71-1.59,16-2.78,1.55-10.82,10-11.77-.08-40.63,25.52-7.88,52.28-34.59,62-33.64,28.62,7.64,10.11,9.7Z" transform="translate(1017 -121.97)"/><path class="cls-2" d="M519.31,671.09l1-28.39-.4-11.21,3.42-11.14,5.55-5.4,8.72-10.9-1.87-4.77,3.59-7.08-4.08-10.5.65-5.8,1.31-15.75L542.3,553l2.61-10.09,4.65-3.82L569.05,537l18.11,6.52,6.76,6.68,9.22.32,8.56-4.37,21.86,9.14,9.21-.4,10.69-7.55,10.6.56,5.22-2.47,9.7,1,14,5.09,14.11-9.86,4.24.72,12.23,19.32,3.43-.39,7.09,7-2,3.18-1,5.89L716,591.09,711.2,602.3l-2.53,9.15-3.84,4-3.67,12.33L691.54,635l-2.85,8.9-4.08,7.16L683,658.37l-12.48,5.88L660.39,657l-6.85.32-10.77,10.34-5.22.16-8.64,17-4.65,12.4-18.75,6.37-6.86-.88-6.93,3.9-14.51-.4-9.63-11-6-12.81-12.8-11.61-13.62.24Z" transform="translate(1017 -121.97)"/><path class="cls-5" d="M732.64,554.74l7.18,11.3L741,577.73l-.65,11.69,9.87,16.06-10.11-.24L735,606.52l-8.24-1.75L722.86,613l10.68,10.34,7.91,2.94,2.53,7.31,5.71,12.17-2.86,4.77-9.13,17.9-4.32,3.18L732,685.33l1.79,7.39L732.32,698l8.56,9.22,1.55,6.37,6.69,9.06,8.23,5.65.82,8,2,5.17-1.31,9.46-14.43-4.13-14.6-4.69L707,741.47l-2.2-1-10.68,2.22-11-2.38-8.56,1.19-29.44-.4,2.61-13.91-7-11.69-8.23-2.95-3.75-7.87-4.57-2.55.16-4.93,4.65-12.4,8.64-17,5.22-.16,10.77-10.34,6.85-.32,10.11,7.24L683,658.37l1.63-7.32,4.08-7.16,2.85-8.9,9.62-7.24,3.67-12.33,3.84-4,2.53-9.15L716,591.09l15.17-13.68,1-5.89,2-3.18-7.09-7,.57-5.65Z" transform="translate(1017 -121.97)"/><path class="cls-3" d="M486.85,587.59l-2.29,9.22,5.55,5.25,6.28,6.13.65,8.66,3.67,3.66L499.9,661l4.4,12.17-14.52,3.74-4-6.21-4.89-11.13-1.39-8.83,4-15.82-4.56-6.45-1.71-13.91V601.74l-7.51-9.06,1.31-5.49Z" transform="translate(1017 -121.97)"/><path class="cls-2" d="M471,587.19l-1.31,5.49,7.51,9.06v12.81l1.71,13.91,4.56,6.45-4,15.82,1.39,8.83,4.89,11.13,4,6.21L461.4,687.23l-10,6-16.31,5.09-16.06-5,.81-6.92L412,671.25l4.73-20,7.59-14.79-4.81-25L417,598.17l.41-10,31.4-.8,8,1.27,5.87-2.86Z" transform="translate(1017 -121.97)"/><path class="cls-3" d="M325.46,601.51l2.36-1.6,5,2.63,13.94.16,3.35-5.17,3.18.32,5.22-2,2.77,7.55,4.24-2.22,7.42-2.63,8.16,3.9,3.1,5.81,8.15,3.73,6.36-4.45,8.48-.64,12.32,4.54,4.81,25-7.59,14.79-4.73,20,7.83,15.19-.81,6.92-8.24.16-12.64-3.42-11.58.24-21.37,3-12.55,5.09L334.67,705l-3.5-.48,1.38-14.55,1.8-2.23-.57-6.92-7.67-7.39-5.71-1.2-5.3-4.77,3.92-7.87-1.8-8.51L318,646l2.85-.08,1.14-7.63-1.46-3.42,1.79-2.47,6.69-2.15-4.49-14.07-4.16-7.32,1.47-6Z" transform="translate(1017 -121.97)"/><path class="cls-4" d="M223,559.52l8.73.23,13,4.3,4-.4,1.38-2,9.87,1.43,2.61-1,1.06,6.44h2.86l4.73-2.38,2.93.63,5.06,4.46,7.75,1.43,5-3.82,5.79-2.39L302,564l3.67.48,4,3.89,2.12,4.85,7.42,7.4-3.67,4.53-.73,5.73,3.83-1.75,2.28,2.07-1,5.25,5.55,5.09-3.59,1.35-1.47,6,4.16,7.32,4.49,14.07-6.69,2.15-1.79,2.47,1.46,3.42-1.14,7.63L318,646l-5.06-.48-3.75,7.08-5.06-.08-3.5-3.74,1.14-7.07-7.5-10.82-4.73,2-3.92.4-5,1,.24-6.52L278,623.14l.57-5.09-3.92-7.4-5-6.36H255.16L251,607.63l-5,.4-3.1,3.81-2.12,4.85-9.62,7.8-8-10.42-7-6.92-4.57-2.3-4.56-3.5-2-7.8-2.61-3.89-5.3-2.87,8.07-8.59,5.47.32,4.73-2.94,4-.08,2.86-2.31-1.55-5.8,2-1.91Z" transform="translate(1017 -121.97)"/><path class="cls-2" d="M169.13,563.09l9.62-2.86,5.95.56,4.81-2,33.44.72-.33,6-2,1.91,1.55,5.8-2.86,2.31-4,.08-4.73,2.94-5.47-.32-8.07,8.59-9.63-7.39-7.66-1.12-4.08-5,.08-2.7-5.54-3.74Z" transform="translate(1017 -121.97)"/><path class="cls-2" d="M318,646l-.82,5.09,1.8,8.51-3.92,7.87,5.3,4.77,5.71,1.2,7.67,7.39.57,6.92-1.8,2.23-1.38,14.55-4.73.16-18.6-8.43-16.39-13.44L276,673.16l-12.23-11.37,4.32-5.65,1-5.09,8.15-9.62,8.4-8.19,3.92-.4,4.73-2,7.5,10.82-1.14,7.07,3.5,3.74,5.06.08,3.75-7.08Z" transform="translate(1017 -121.97)"/><path class="cls-3" d="M231.19,624.49l9.62-7.8,2.12-4.85L246,608l5-.4,4.16-3.34h14.52l5,6.36,3.92,7.4-.57,5.09,2.93,4.61-.24,6.52,5-1-8.4,8.19-8.15,9.62-1,5.09-4.32,5.65L259,660.51l-13-7.15L236.57,644l-3.18-6.44Z" transform="translate(1017 -121.97)"/><path class="cls-2" d="M372.92,598.56l-1.22-10.18,5-7.47-.4-6,14.35-14.63,2.61-12.09,5-4.29,8.73,2.38,7.58-3.57L417,538.2l14-8,3.42-5.49,17-7.31,9.95-2.47,4.49,3.34,11.58-.08L476,526.75l2.37,8,10.19,11.53.57,8.51L510,558.88,509.6,571l-4,5.25-8.81,1.67-3.67,7.63-6.28,2.07-15.82-.4-8.32-1.43-5.87,2.86-8-1.27-31.4.8-.41,10,2.45,13.28-12.32-4.54-8.48.64L392.33,612l-8.15-3.73-3.1-5.81Z" transform="translate(1017 -121.97)"/><path class="cls-5" d="M965.47,689.14l-6,1.91-11.58-.48-13.62-1.82-6.77,1.51-2.69,4.29-5.87.56-7.1-3.74-20.14,8.75-8.24-1.75-2.44,1.35-5.47,10.66L862.15,707l-13.22-1.75-11.49-6.52-14.93-6-9.62,5.65-7.1,9-1.63,12.25-11.58-1-12.23-2.95L769.59,725l-9.46,16.46-2-5.17-.82-8-8.23-5.65-6.69-9.06-1.55-6.37L732.32,698l1.46-5.25L732,685.33l1.39-13.68,4.32-3.18,9.13-17.9,14.93-1.35,3.34-4.53,3,.4,4.48,4,22.76-6.76,7.66-6.84,9.46-6.2-1.79-6.2,5.13-1.59,17.46,1,17-8.11,13-19.25L872.5,588l11.42-3,2,7.56,10.44,11.05.08,7.16-2.94,7.32,1.14,5.48,6.28,5.09,13.79,7.72,9.86,7.15.17,5.73,12.15,9.15,7.58,7.63,4.57,10.58,13.46,7Z" transform="translate(1017 -121.97)"/><path class="cls-2" d="M804.16,719.6l-1.06,10.66-5.38,9.46-3.51,11-2.28,15.66,1,9.94-3,6.13-.41,6.44-2.12,5.64L775.46,803l-8.24,9.07-7.83,17.18.57,14.47-4.56,5.65L744.88,858l-10.69,11-6.68-3.1-1.23-5-9.78-.16-6.2,6.76-4.73-1.83-6.77-6-5.46,2.94L686,870.22l-14.85-18.69,13.79-9.7-6.85-11.69,6.19-4.37,12.24-2.23,1.46-7.79,9.63,8.51,16,.71,5.55-8.35,2.28-11.69-2-13.76-8.48-10.41,7.83-20.44-4.57-3.5-13.45,1.43-5.06-9.14,1.3-7.64,22.84.64,14.6,4.69,14.43,4.13,1.31-9.46L769.59,725l10.76-9.31,12.23,2.95Z" transform="translate(1017 -121.97)"/><path class="cls-5" d="M674.5,741.55l8.56-1.19,11,2.38,10.68-2.22,2.2,1-1.3,7.64,5.06,9.14,13.45-1.43,4.57,3.5-7.83,20.44,8.48,10.41,2,13.76-2.28,11.69L723.59,825l-16-.71L698,815.75l-1.46,7.79-12.24,2.23-6.19,4.37,6.85,11.69-13.79,9.7-18.59-17.81-11.91-14.47-11-18.21.58-5.89,4-5.65,4.4-12.8,3.59-13.12,6.12-1,26.34.16Z" transform="translate(1017 -121.97)"/><path class="cls-5" d="M645.06,741.15l29.44.4.16,21.23-26.34-.16-6.12,1L638.86,761Z" transform="translate(1017 -121.97)"/><path class="cls-4" d="M1026.31,928.44l7.58,4.45,7.18,3,11.5,2.94,10.27,5.25,8.48,7.87,4.65,15-3.1,4.77L1069.2,986l3.51,14.63-5.71,6.13-5.46,16.38,9.46,4.53-54.8,14.56,1.71,12.56-13.7,2.39-10.28,7-2.2,6.12-6.52,1.43-15.66,14.47-10,11.46-6.12.39-5.87-2.06-20.22-1.91-3.27-1.35-.08-1.44-7.17-4-11.67-1-14.84,4.06-11.82-11-12.15-14.4.81-56.14,37.68.23-1.55-6,2.69-6.6-3.18-8.27,2-8.59L902.92,974l6.2.48,1.06,5.49,8.48-.48,11.42,1.67,6,8,14.52,2.47,11-5.57,4.08,9.23,13.86,2.46,6.69,7.48,7.42,9.7,13.78.16-1.47-19-5,3.18-12.64-6.84-4.9-3.1,2.29-17.73L989,950.78,984.88,943l5.22-11.29,4.81-2.07,24.3-3Z" transform="translate(1017 -121.97)"/><path class="cls-3" d="M1062.84,944.1l17.7,3.34,3.67,4.85,6.12,8.19,5.05,24-5.05,13.36,5.05,22.9,6.28-.23,6.53,5.72,7.58,12.73,1.47,22.66-7.83,3.74-5.47,12.25-11.82-10.9-1.31-12.49,3.76-8.19-1-7.07-7.18-4.46-5,1.67-10.44-8.51-9.46-4.53,5.46-16.38,5.71-6.13L1069.2,986l3.67-14.31,3.1-4.77-4.65-15Z" transform="translate(1017 -121.97)"/><path class="cls-3" d="M1095.38,984.5l13.62-1.43,21.69,4.93,4.73-2.23,12.56-.39,6.44-5.33,10.85.32,19.74-6.84,14.43-10.26,2.94,8-.74,17.5,2.2,15.5.74,27.52,3.18,8.67L1202.3,1053l-7,12.25-11.5,11-16.47,6.68-20.39,8.59-20.47,18.85-6.93,3.26-12.64,12.49-7.42,4.13-1.55,12.57,8.56,13.36,3.59,10.34.25,5.24,3.18-.87-.49,17.26-2.94,8.19,4.24,3-2.69,7.32-7.58,6.28-14.85,6-21.77,9.55-7.91,6.52,1.55,7.47,4.57,1.12-1.55,9.3-13.7-.16-1.55-7.79-2.69-7.88-1.55-6.36,3.26-19.64-4.73-12.49-8.65-24.81,19.09-20,4.73-12.72,2.77-1.59,2-10.34-2.94-5.25.82-13.2,3.5-12.17-.08-22.35-9.38-5.64-8.56-1.27-3.91-4.38-8.4-3.74-15.09.4-1.14-6.6-1.71-12.56,54.8-14.56,10.44,8.51,5-1.67,7.18,4.46,1,7.07-3.76,8.19,1.31,12.49,11.82,10.9,5.47-12.25,7.83-3.74-1.47-22.66-7.58-12.73-6.53-5.72-6.28.23-5.05-22.9Z" transform="translate(1017 -121.97)"/><path class="cls-4" d="M1050.37,1252.66l-3.67,7.87-10.61,1.91-10.76-9.62-.16-6,5-6.6,1.63-5.17,5.3-1.28,9.06,3.26,2.69,7.88Z" transform="translate(1017 -121.97)"/><path class="cls-5" d="M705.57,865.69,699,869.43,696,874l-.57,7.63-4.65,1.91L686,870.22l7.34-7.63,5.46-2.94Zm-12.23,23.22,7.5-2.31,5.22.32,6.36-2.14,53.33.23,4.49,13.13,5.14,10.57,4.15,5.73,6.94,9.22,12-1.43,6-2.46,10,2.46,2.77-4.37,4.49-10.34,11.25-.64,1-3.1,9.21-.08-1.63,6.36,21.94-.15L863.7,921l3.67,6.76-2.61,10.66,1.3,10.81,6,6.6-1,20.92,4.48-1.59,7.83.39L894.68,973l8.24,1,1.88,5.49-2,8.59,3.18,8.27-2.69,6.6,1.55,6-37.68-.23-.81,56.14,12.15,14.4,11.82,11-33.19,7.16L813.3,1095l-12.56-8.51-73.23.8-2.78,1.19-10.76-8-11.75-.48L691.46,1083l-8.73,3.42L681,1075.32l2.53-15.51,6.2-16.14,1-7.56,5.87-15.9,4.32-7.24,10.36-11.53,5.79-7.79,1.87-13-.89-10-5.39-6.28-4.89-10.73L703.37,943l1-3.66,5.55-7-5.46-17-3.75-11.77-9.06-11.13Z" transform="translate(1017 -121.97)"/><path class="cls-3" d="M1021.42,823.94l1.06,7,3.91,4,.16,5.73-4.48,3.66-7,9.22-6.6,6.36-7.42.88-1.14-21.31-4.57-8,10.93,1.36,5.54-10Z" transform="translate(1017 -121.97)"/><path class="cls-3" d="M1366.21,1001.2l4.81,7.56,4.49,11.61,2.94,21.23,4.64,8.19-1.79,8.51-3.18,5.17-6.2-10.34-3.34,5.25,3.42,13-1.63,7.48-5,4-1.14,15-7.1,20.52-8.89,24.34-11.17,33.4-6.93,24.49-8.16,20.44-14.76,4.13-15.74,7.48-10.44-4.45-14.35-6.37-5-9.3-1.23-15.59-6.36-14.07-1.63-12.65,3.26-12.72,8.32-3.1v-5.81l8.65-13.36,1.63-11.29-4.16-8.35-3.43-11.06-1.47-16.3,6.37-9.86,2.36-11.13,9-.64,10-3.66,6.77-3.18,7.91-.24,10.28-10,14.92-10.89,5.38-8.83-2.44-7.55,7.66,2.14,10-12.24.33-10.66,6-7.87Z" transform="translate(1017 -121.97)"/><path class="cls-3" d="M168.47,541.78l19.74-.55,4.08-4.14,5.7-.32,7.1,4.38,5.63.08,5.95-3,3.67,5.09-7.83,3.9-7.83-.32-7.75-3.66-6.68,4.06-3.26.16L182.66,550l-16.47-.39Z" transform="translate(1017 -121.97)"/><path class="cls-1" d="M642,247.14l-7.75-31.65-11.09-7.08-.16-4.29-14.84-10.5-1.55-13.28,11.17-9.86L622.06,156l-2.85-16.86,3.67-9.06L642.53,123l12.64,2.15-.49,8.9L670,127.53l1.31,3.42-9.06,8.59-.16,8.19,6.28,4.38L666,167.38l-11.91,8.82,3.42,9.63,9.38.31,4.49,8.35,6.93,2.79-1.06,13.52-8.81,5.09-5.54,5.64-12.4,6.76,1.88,7.32-1.55,7.47Z" transform="translate(1017 -121.97)"/><path class="cls-1" d="M313.63,298.51l.33-3.42V293.9L313.8,273,343,260l18.11-2.7,14.76-4.77,6.93-8.83,21.12-7,.74-13,10.52-1.51,8.15-6.52,23.65-3,3.34-6.91-4.81-3.74-6.2-18.61-1.06-10.66-6.85-11.29,17.37-9.7,19.58-3,11.41-7.32,17.37-5.33,30.67-3.18,29.84-1.35,9.14,2.54,17-6.92,19.33-.15,7.34,4.13,12.4-1.11-3.67,9.06L622.06,156l-4.24,14.48-11.17,9.86,1.55,13.28L623,204.12l.16,4.29,11.09,7.08L642,247.14l5.87,15.59,1,8.19-3.18,14.39,1.3,8L644.65,303l1.63,11-7.18,7.4,10.69,12.88.65,7.55,6.44,9.79,8.48-3.18,14.27,8.19,7.92,11-62,33.64-52.28,34.59-25.52,7.88-20.06,1.75-.17-11.22-8.4-2.86-11.25-5.09-4.32-8.19-61-38.49-60.92-38.49Z" transform="translate(1017 -121.97)"/><path class="cls-4" d="M1129.14,527.15l-1.87-7,7.75-25.92,1.79-11.69,5.71-5.41,13.29-2.94,9.13-10,10.52,20.36,5,16.23,10,8.59L1215,526l10,10,9.78,10.18,5.71,6,8.89,5.33-5.46,4.29-7.75-1.51-6.2-5.72-7.42-10.34-8-5.65-4.73-6-15.74-7.08-12.31-.24-4.41-3.66-10.6,4.14-10.93-8-5.71,13.2Z" transform="translate(1017 -121.97)"/><path class="cls-1" d="M431.39,161.49l6.85,11.29,1.06,10.66,6.2,18.61,4.81,3.74L447,212.7l-23.65,3-8.15,6.52-10.52,1.51-.74,13-21.12,7-6.93,8.83-14.76,4.77L343,260,313.8,273,314,293.9h-2.77l.41,9.38-11.18.64-5.79,4H286.4l-6.53-2.31L264.7,307.5l-5.95,13.76-5.63,1.27-8.48,22.27-25.12,19-6,24.34L206.15,396l-2.2,6.36-40.7,1.43h-.32l.89-8.19,6.94-4.77,5.87-9.22-1.14-6,6.19-12.4L191.8,352l6-2.86,4.81-10.26.41-9.38,6.52-10.9,12.07-6.44,11.42-18.05.33-.24,9.13-6.76,16.8-1.91,14.27-12.09,9.05-4.69,15.09-14.71-4.57-22,6.94-15.19,2.36-9.22,11.66-11.93,18.11-8,13.45-7.32,12.07-18.21,5.71-10.9,13.29.16,10.85,7.48,17.21-1.27,18.75,3.89Z" transform="translate(1017 -121.97)"/><path class="cls-1" d="M1137.05,393.63H922.58V266l-5.47-14.24,4.65-10.81L919,233.38l6.52-8.51,24.06-.24,17.37,4.62,18,5.24,8.32,2.71,14-5.57,7.42-5,16-1.51,12.8,2.23,5,8.75,4.16-5.73,14.51,4.13,14,1,9-4.45h0l10,25.68,1.8,4.61-5.06,7.08-3.91,13.28L1088,291l-4.24,3-6-5.65-8.16-7.87-12.88-25.29-1.88,1.59,7.5,18.61,11.09,17.74,13.71,27.43,6.68,9.62,5.79,9.94,16.23,19.49-3.59,3.1.57,11.45,21,15.83Z" transform="translate(1017 -121.97)"/><path class="cls-1" d="M922.58,393.63v35.15l-20.8.08-.24,7.39-72.1-33.72-72.09-33.8-18.26,9.63L726.28,385l-10.11-9.7-28.62-7.64-7.92-11-14.27-8.19-8.48,3.18-6.44-9.79-.65-7.55L639.1,321.42l7.18-7.4-1.63-11,2.36-9.63-1.3-8,3.18-14.39-1-8.19L642,247.14l8.81-4.06,1.55-7.47-1.88-7.32,12.4-6.76,5.54-5.64,8.81-5.09,1.06-13.52,21.2,6,7.59-1.51,15.08,2.94,24,7.88,8.48,15.66,16.23,3.42,25.53,7.4,19.24,8.75,8.81-4.54,8.64-8.11L829,221.69l5.63-8.59,13-8.27,12.4-2.38L884.49,206l6.2,7.88,6.69.08,5.79,3,17.94,2.07,4.4,5.8L919,233.38l2.77,7.56-4.65,10.81L922.58,266V393.63Z" transform="translate(1017 -121.97)"/><path class="cls-2" d="M1334.49,640.31l-51,53-23.57.71-16.07,12.49-11.58.32-5,5.56h-12.4l-7.25-6-16.48,7.32-5.38,7.39-12.07-1.43-4-2-4.24.48-5.7-.16-22.84-15h-12.64l-6.12-5.81v-9.86l-9.46-2.94L1098,665.21l-8.24-4.14-3.18-7-9.13-8.67-11.09-1.19,6.12-10.1,9.62-.4,2.69-5.4-.24-15.83,5.38-18.45,8.56-4.93,1.79-7.24,7.75-13.44,10.93-8.74,7.34-17.34,2.85-15.19,21,3.74,5.71-13.2,10.93,8,10.6-4.14,4.41,3.66,12.31.24,15.74,7.08,4.73,6,8,5.65,7.42,10.34,6.2,5.72-6.36,7.79-6.12,8.28,1.39,4.85.33,5.4,10.11.24,4.32-1.19,4,3.1-3.92,6.28,6.69,9.71,6.69,8.43,6.85,6.36,59.12,20.91Z" transform="translate(1017 -121.97)"/><path class="cls-1" d="M1236.22,560.31l7.75,1.51,5.46-4.29,4.24,5.49-.57,7.31-10.27,4.22,7.74,4.85-6.68,9.38-4-3.1-4.32,1.19-10.11-.24-.33-5.4-1.39-4.85,6.12-8.28Z" transform="translate(1017 -121.97)"/><path class="cls-1" d="M1355.45,580.27l-.08.32-.09,7.24v27l-8.15,10.81-12.64,14.71-15.17.16-59.12-20.91-6.85-6.36-6.69-8.43-6.69-9.71,3.92-6.28,6.68-9.38,5.87,3.18,3.51,7.31,8.16,7.4,9,.08,17-4.53,19.74-2.07,15.9-5.49,9-1.19,6.44-3.18,10.28-.64Z" transform="translate(1017 -121.97)"/><path class="cls-2" d="M1083.48,798.17l-36.78,1.35-19.82-.23-6.36,2.14-10.85,5.41-4.32-1.75.16-13.36,4.16-6.68,1-14.15,3.83-8.2,6.94-9.22,6.93-4.69,5.79-6.21-7.26-2.38,1.14-20.68,7.42-4.77,11.5,4,14.52-4.14h12.72l11.17-8.11,8.56,12.25,2.12,8.82,7.91,20.28-6.52,12.81-8.89,11.69-5.22,7.15Z" transform="translate(1017 -121.97)"/><path class="cls-3" d="M1020.52,801.43l7.17,9.94-1.06,10.34-5.21,2.23h0l-9.63-1.11-5.54,10-10.93-1.36,1.63-9.7,2.53-1.35.65-10.5,5.22-4.85,4.32,1.75Z" transform="translate(1017 -121.97)"/><path class="cls-5" d="M1028,719.52l-15.9-11.69-4.32-7.55-10,3.73-8.4-1.11-4.82,2.94-8.15-2.14-10.93-14.56-2.93-5.56-13.46-7L944.51,666l-7.58-7.63-12.15-9.15-.17-5.73-9.86-7.15-12.32-6.84,5.55-2,6.2-3.26,4.64-15.75,5-8.19,13.05-2.46,3.1,4.85L949.24,613l5,1.51,6.52-3,13,.55,2.45,3.66h18l.65-3.66,9.3-3.34,1.87-5.09,6.77-3.66,15.25,10.26,9.3-1.75,9-12.72,10-9.7-1.55-10.58-4.32-5.17,10.84-.87,1.23-4,8.4,1.27-2.21,13,2.21,12.72,9.29,6.92,2.21,6.12-.33,8.75,2.53.32.16,13.76-2.69,5.4-9.62.4-6.12,10.1,11.09,1.19,9.13,8.67,3.18,7,8.24,4.14,10.68,19.16L1096.44,696l-11.09,10.5-11.17,8.11h-12.72l-14.52,4.14-11.5-4Z" transform="translate(1017 -121.97)"/></g><g id="layer4"><path class="cls-7" d="M217.86,1572.18v-53.31h9.24v53.31Z" transform="translate(1017 -121.97)"/><path class="cls-7" d="M227.1,1572.18v-26.66h9.25v26.66Z" transform="translate(1017 -121.97)"/><path class="cls-7" d="M236.35,1572.18v-80h9.25v80Z" transform="translate(1017 -121.97)"/><path class="cls-7" d="M245.6,1572.18v-53.31h9.24v53.31Z" transform="translate(1017 -121.97)"/><path class="cls-7" d="M254.84,1572.18V1465.56h9.25v106.62Z" transform="translate(1017 -121.97)"/><path class="cls-7" d="M282.44,1580.59V1419.74H293.2v160.85Z" transform="translate(1017 -121.97)"/><path class="cls-7" d="M304,1580.59v-134h10.76v134Z" transform="translate(1017 -121.97)"/><path class="cls-7" d="M291.83,1572.18v-53.31h9.25v53.31Z" transform="translate(1017 -121.97)"/><path class="cls-7" d="M301.08,1572.18v-53.31h9.24v53.31Z" transform="translate(1017 -121.97)"/><path class="cls-7" d="M310.32,1572.18v-53.31h9.25v53.31Z" transform="translate(1017 -121.97)"/><path class="cls-7" d="M319.57,1572.18v-53.31h9.24v53.31Z" transform="translate(1017 -121.97)"/><path class="cls-7" d="M328.81,1572.18v-26.66h9.25v26.66Z" transform="translate(1017 -121.97)"/><path class="cls-7" d="M347.31,1572.18v-53.31h9.24v53.31Z" transform="translate(1017 -121.97)"/><path class="cls-7" d="M375.05,1572.18v-26.66h9.24v26.66Z" transform="translate(1017 -121.97)"/><path class="cls-7" d="M393.54,1572.18v-26.66h9.25v26.66Z" transform="translate(1017 -121.97)"/><path class="cls-7" d="M430.52,1572.18v-26.66h9.25v26.66Z" transform="translate(1017 -121.97)"/><path class="cls-7" d="M467.51,1572.18v-26.66h9.25v26.66Z" transform="translate(1017 -121.97)"/><path class="cls-7" d="M486,1572.18v-26.66h9.25v26.66Z" transform="translate(1017 -121.97)"/><path class="cls-7" d="M578.47,1572.18v-26.66h9.24v26.66Z" transform="translate(1017 -121.97)"/><path class="cls-7" d="M633.94,1572.18v-26.66h9.25v26.66Z" transform="translate(1017 -121.97)"/><path class="cls-7" d="M744.9,1572.18v-26.66h9.25v26.66Z" transform="translate(1017 -121.97)"/><path class="cls-7" d="M1133.25,1572.18v-26.66h9.25v26.66Z" transform="translate(1017 -121.97)"/></g><g id="layer5"><path class="cls-8" d="M217.86,1590v-17.77h40.72V1590Z" transform="translate(1017 -121.97)"/><path class="cls-9" d="M258.58,1590v-17.77h43.55V1590Z" transform="translate(1017 -121.97)"/><path class="cls-10" d="M302.13,1590v-17.77h43.54V1590Z" transform="translate(1017 -121.97)"/><path class="cls-11" d="M345.67,1590v-17.77H1142.5V1590Z" transform="translate(1017 -121.97)"/></g><g id="layer6"><path class="cls-12" d="M217.86,1572.18v28.44" transform="translate(1017 -121.97)"/><path class="cls-12" d="M258.58,1572.18v28.44" transform="translate(1017 -121.97)"/><path class="cls-12" d="M302.13,1572.18v28.44" transform="translate(1017 -121.97)"/><path class="cls-12" d="M345.67,1572.18v28.44" transform="translate(1017 -121.97)"/><path class="cls-12" d="M1142.5,1572.18v28.44" transform="translate(1017 -121.97)"/></g><g id="layer7"><text class="cls-13" transform="translate(1234.86 1501.88) scale(1.04 1)">0.5</text><text class="cls-13" transform="translate(1302.38 1501.88) scale(1.04 1)">2.2</text><text class="cls-13" transform="translate(1345.82 1501.88) scale(1.04 1)">3.1</text><text class="cls-13" transform="translate(2112.52 1501.88) scale(1.04 1)">19.6</text></g><text class="cls-14" transform="translate(1235.32 1542.84)"><tspan class="cls-15">M</tspan><tspan x="22.68" y="0">ean</tspan><tspan class="cls-16" x="65.74" y="0"> </tspan><tspan class="cls-17" x="70.53" y="0">T</tspan><tspan x="82.46" y="0">ons of </tspan><tspan class="cls-18" x="159.88" y="0">C</tspan><tspan class="cls-19" x="175.92" y="0">a</tspan><tspan class="cls-20" x="189.42" y="0">r</tspan><tspan x="198.69" y="0">bon Di</tspan><tspan class="cls-21" x="276.66" y="0">o</tspan><tspan x="291.64" y="0">xide </tspan><tspan class="cls-22" x="346.92" y="0">P</tspan><tspan x="361.11" y="0">er </tspan><tspan class="cls-18" x="390.23" y="0">C</tspan><tspan x="406.27" y="0">apita </tspan><tspan class="cls-23" x="470.95" y="0">O</tspan><tspan class="cls-24" x="490.64" y="0">v</tspan><tspan class="cls-25" x="503.82" y="0">er 2011-2020</tspan></text></svg>