<svg id="Layer_1" data-name="Layer 1" xmlns="http://www.w3.org/2000/svg" xmlns:xlink="http://www.w3.org/1999/xlink" viewBox="0 0 391.19 432.1"><defs><style>.cls-1,.cls-3,.cls-4,.cls-6{fill:none;}.cls-2{clip-path:url(#clip-path);}.cls-3,.cls-4{stroke:#ebebeb;stroke-linejoin:round;}.cls-3{stroke-width:0.53px;}.cls-4,.cls-6{stroke-width:1.07px;}.cls-5{fill:#66c2a5;}.cls-6{stroke:#000;stroke-linecap:square;stroke-miterlimit:10;}.cls-7{fill:#fc8d62;}.cls-8{fill:#8da0cb;}.cls-9{fill:#e78ac3;}.cls-10{fill:#a6d854;}.cls-11{fill:#ffd92f;}.cls-12,.cls-16{font-size:9px;}.cls-12{fill:#4d4d4d;}.cls-12,.cls-13,.cls-16,.cls-20{font-family:Helvetica;}.cls-13{font-size:11px;}.cls-14{letter-spacing:-0.14em;}.cls-15{letter-spacing:-0.05em;}.cls-17{letter-spacing:-0.03em;}.cls-18{letter-spacing:-0.03em;}.cls-19{letter-spacing:0em;}.cls-20{font-size:13px;}.cls-21{letter-spacing:-0.05em;}.cls-22{letter-spacing:-0.02em;}.cls-23{letter-spacing:-0.01em;}.cls-24{letter-spacing:0.01em;}.cls-25{letter-spacing:-0.03em;}.cls-26{letter-spacing:0.01em;}.cls-27{letter-spacing:0em;}</style><clipPath id="clip-path" transform="translate(-3.94 -2.9)"><rect class="cls-1" x="38.38" y="38.01" width="255.52" height="354.52"/></clipPath></defs><g class="cls-2"><line class="cls-3" x1="34.44" y1="330.83" x2="289.96" y2="330.83"/><line class="cls-3" x1="34.44" y1="245.45" x2="289.96" y2="245.45"/><line class="cls-3" x1="34.44" y1="160.08" x2="289.96" y2="160.08"/><line class="cls-3" x1="34.44" y1="74.71" x2="289.96" y2="74.71"/><line class="cls-4" x1="34.44" y1="373.51" x2="289.96" y2="373.51"/><line class="cls-4" x1="34.44" y1="288.14" x2="289.96" y2="288.14"/><line class="cls-4" x1="34.44" y1="202.77" x2="289.96" y2="202.77"/><line class="cls-4" x1="34.44" y1="117.39" x2="289.96" y2="117.39"/><line class="cls-4" x1="49.47" y1="389.63" x2="49.47" y2="35.11"/><line class="cls-4" x1="74.52" y1="389.63" x2="74.52" y2="35.11"/><line class="cls-4" x1="99.57" y1="389.63" x2="99.57" y2="35.11"/><line class="cls-4" x1="124.62" y1="389.63" x2="124.62" y2="35.11"/><line class="cls-4" x1="149.67" y1="389.63" x2="149.67" y2="35.11"/><line class="cls-4" x1="174.72" y1="389.63" x2="174.72" y2="35.11"/><line class="cls-4" x1="199.77" y1="389.63" x2="199.77" y2="35.11"/><line class="cls-4" x1="224.82" y1="389.63" x2="224.82" y2="35.11"/><line class="cls-4" x1="249.88" y1="389.63" x2="249.88" y2="35.11"/><line class="cls-4" x1="274.93" y1="389.63" x2="274.93" y2="35.11"/><rect class="cls-5" x="38.19" y="119.38" width="22.55" height="54.94"/><rect class="cls-6" x="38.19" y="119.38" width="22.55" height="54.94"/><rect class="cls-7" x="38.19" y="174.31" width="22.55" height="56.11"/><rect class="cls-6" x="38.19" y="174.31" width="22.55" height="56.11"/><rect class="cls-8" x="38.19" y="230.42" width="22.55" height="68.5"/><rect class="cls-6" x="38.19" y="230.42" width="22.55" height="68.5"/><rect class="cls-9" x="38.19" y="298.93" width="22.55" height="67.18"/><rect class="cls-6" x="38.19" y="298.93" width="22.55" height="67.18"/><rect class="cls-10" x="38.19" y="366.11" width="22.55" height="4.14"/><rect class="cls-6" x="38.19" y="366.11" width="22.55" height="4.14"/><rect class="cls-11" x="38.19" y="370.24" width="22.55" height="3.27"/><rect class="cls-6" x="38.19" y="370.24" width="22.55" height="3.27"/><rect class="cls-5" x="63.24" y="113.27" width="22.55" height="56.14"/><rect class="cls-6" x="63.24" y="113.27" width="22.55" height="56.14"/><rect class="cls-7" x="63.24" y="169.42" width="22.55" height="57.35"/><rect class="cls-6" x="63.24" y="169.42" width="22.55" height="57.35"/><rect class="cls-8" x="63.24" y="226.77" width="22.55" height="70.23"/><rect class="cls-6" x="63.24" y="226.77" width="22.55" height="70.23"/><rect class="cls-9" x="63.24" y="297" width="22.55" height="68.92"/><rect class="cls-6" x="63.24" y="297" width="22.55" height="68.92"/><rect class="cls-10" x="63.24" y="365.92" width="22.55" height="4.24"/><rect class="cls-6" x="63.24" y="365.92" width="22.55" height="4.24"/><rect class="cls-11" x="63.24" y="370.16" width="22.55" height="3.35"/><rect class="cls-6" x="63.24" y="370.16" width="22.55" height="3.35"/><rect class="cls-5" x="88.3" y="106.08" width="22.55" height="57.5"/><rect class="cls-6" x="88.3" y="106.08" width="22.55" height="57.5"/><rect class="cls-7" x="88.3" y="163.58" width="22.55" height="58.78"/><rect class="cls-6" x="88.3" y="163.58" width="22.55" height="58.78"/><rect class="cls-8" x="88.3" y="222.36" width="22.55" height="72.32"/><rect class="cls-6" x="88.3" y="222.36" width="22.55" height="72.32"/><rect class="cls-9" x="88.3" y="294.68" width="22.55" height="71.02"/><rect class="cls-6" x="88.3" y="294.68" width="22.55" height="71.02"/><rect class="cls-10" x="88.3" y="365.7" width="22.55" height="4.37"/><rect class="cls-6" x="88.3" y="365.7" width="22.55" height="4.37"/><rect class="cls-11" x="88.3" y="370.06" width="22.55" height="3.45"/><rect class="cls-6" x="88.3" y="370.06" width="22.55" height="3.45"/><rect class="cls-5" x="113.35" y="98.71" width="22.55" height="58.86"/><rect class="cls-6" x="113.35" y="98.71" width="22.55" height="58.86"/><rect class="cls-7" x="113.35" y="157.56" width="22.55" height="60.2"/><rect class="cls-6" x="113.35" y="157.56" width="22.55" height="60.2"/><rect class="cls-8" x="113.35" y="217.76" width="22.55" height="74.5"/><rect class="cls-6" x="113.35" y="217.76" width="22.55" height="74.5"/><rect class="cls-9" x="113.35" y="292.27" width="22.55" height="73.21"/><rect class="cls-6" x="113.35" y="292.27" width="22.55" height="73.21"/><rect class="cls-10" x="113.35" y="365.48" width="22.55" height="4.49"/><rect class="cls-6" x="113.35" y="365.48" width="22.55" height="4.49"/><rect class="cls-11" x="113.35" y="369.97" width="22.55" height="3.54"/><rect class="cls-6" x="113.35" y="369.97" width="22.55" height="3.54"/><rect class="cls-5" x="138.4" y="91.18" width="22.55" height="60.2"/><rect class="cls-6" x="138.4" y="91.18" width="22.55" height="60.2"/><rect class="cls-7" x="138.4" y="151.38" width="22.55" height="61.6"/><rect class="cls-6" x="138.4" y="151.38" width="22.55" height="61.6"/><rect class="cls-8" x="138.4" y="212.98" width="22.55" height="76.77"/><rect class="cls-6" x="138.4" y="212.98" width="22.55" height="76.77"/><rect class="cls-9" x="138.4" y="289.75" width="22.55" height="75.5"/><rect class="cls-6" x="138.4" y="289.75" width="22.55" height="75.5"/><rect class="cls-10" x="138.4" y="365.25" width="22.55" height="4.62"/><rect class="cls-6" x="138.4" y="365.25" width="22.55" height="4.62"/><rect class="cls-11" x="138.4" y="369.87" width="22.55" height="3.64"/><rect class="cls-6" x="138.4" y="369.87" width="22.55" height="3.64"/><rect class="cls-5" x="163.45" y="83.49" width="22.55" height="61.58"/><rect class="cls-6" x="163.45" y="83.49" width="22.55" height="61.58"/><rect class="cls-7" x="163.45" y="145.07" width="22.55" height="63.05"/><rect class="cls-6" x="163.45" y="145.07" width="22.55" height="63.05"/><rect class="cls-8" x="163.45" y="208.12" width="22.55" height="79.05"/><rect class="cls-6" x="163.45" y="208.12" width="22.55" height="79.05"/><rect class="cls-9" x="163.45" y="287.17" width="22.55" height="77.79"/><rect class="cls-6" x="163.45" y="287.17" width="22.55" height="77.79"/><rect class="cls-10" x="163.45" y="364.96" width="22.55" height="4.78"/><rect class="cls-6" x="163.45" y="364.96" width="22.55" height="4.78"/><rect class="cls-11" x="163.45" y="369.74" width="22.55" height="3.77"/><rect class="cls-6" x="163.45" y="369.74" width="22.55" height="3.77"/><rect class="cls-5" x="188.5" y="75.63" width="22.55" height="62.94"/><rect class="cls-6" x="188.5" y="75.63" width="22.55" height="62.94"/><rect class="cls-7" x="188.5" y="138.57" width="22.55" height="64.47"/><rect class="cls-6" x="188.5" y="138.57" width="22.55" height="64.47"/><rect class="cls-8" x="188.5" y="203.04" width="22.55" height="81.44"/><rect class="cls-6" x="188.5" y="203.04" width="22.55" height="81.44"/><rect class="cls-9" x="188.5" y="284.48" width="22.55" height="80.2"/><rect class="cls-6" x="188.5" y="284.48" width="22.55" height="80.2"/><rect class="cls-10" x="188.5" y="364.68" width="22.55" height="4.94"/><rect class="cls-6" x="188.5" y="364.68" width="22.55" height="4.94"/><rect class="cls-11" x="188.5" y="369.61" width="22.55" height="3.9"/><rect class="cls-6" x="188.5" y="369.61" width="22.55" height="3.9"/><rect class="cls-5" x="213.55" y="67.63" width="22.55" height="64.27"/><rect class="cls-6" x="213.55" y="67.63" width="22.55" height="64.27"/><rect class="cls-7" x="213.55" y="131.89" width="22.55" height="65.86"/><rect class="cls-6" x="213.55" y="131.89" width="22.55" height="65.86"/><rect class="cls-8" x="213.55" y="197.76" width="22.55" height="83.92"/><rect class="cls-6" x="213.55" y="197.76" width="22.55" height="83.92"/><rect class="cls-9" x="213.55" y="281.68" width="22.55" height="82.71"/><rect class="cls-6" x="213.55" y="281.68" width="22.55" height="82.71"/><rect class="cls-10" x="213.55" y="364.39" width="22.55" height="5.1"/><rect class="cls-6" x="213.55" y="364.39" width="22.55" height="5.1"/><rect class="cls-11" x="213.55" y="369.48" width="22.55" height="4.03"/><rect class="cls-6" x="213.55" y="369.48" width="22.55" height="4.03"/><rect class="cls-5" x="238.6" y="59.49" width="22.55" height="65.57"/><rect class="cls-6" x="238.6" y="59.49" width="22.55" height="65.57"/><rect class="cls-7" x="238.6" y="125.07" width="22.55" height="67.21"/><rect class="cls-6" x="238.6" y="125.07" width="22.55" height="67.21"/><rect class="cls-8" x="238.6" y="192.28" width="22.55" height="86.5"/><rect class="cls-6" x="238.6" y="192.28" width="22.55" height="86.5"/><rect class="cls-9" x="238.6" y="278.78" width="22.55" height="85.32"/><rect class="cls-6" x="238.6" y="278.78" width="22.55" height="85.32"/><rect class="cls-10" x="238.6" y="364.1" width="22.55" height="5.26"/><rect class="cls-6" x="238.6" y="364.1" width="22.55" height="5.26"/><rect class="cls-11" x="238.6" y="369.35" width="22.55" height="4.16"/><rect class="cls-6" x="238.6" y="369.35" width="22.55" height="4.16"/><rect class="cls-5" x="263.65" y="51.23" width="22.55" height="66.85"/><rect class="cls-6" x="263.65" y="51.23" width="22.55" height="66.85"/><rect class="cls-7" x="263.65" y="118.07" width="22.55" height="68.54"/><rect class="cls-6" x="263.65" y="118.07" width="22.55" height="68.54"/><rect class="cls-8" x="263.65" y="186.62" width="22.55" height="89.16"/><rect class="cls-6" x="263.65" y="186.62" width="22.55" height="89.16"/><rect class="cls-9" x="263.65" y="275.77" width="22.55" height="88.02"/><rect class="cls-6" x="263.65" y="275.77" width="22.55" height="88.02"/><rect class="cls-10" x="263.65" y="363.79" width="22.55" height="5.44"/><rect class="cls-6" x="263.65" y="363.79" width="22.55" height="5.44"/><rect class="cls-11" x="263.65" y="369.22" width="22.55" height="4.29"/><rect class="cls-6" x="263.65" y="369.22" width="22.55" height="4.29"/></g><text class="cls-12" transform="translate(24.5 376.75)">0</text><text class="cls-12" transform="translate(14.5 291.37)">300</text><text class="cls-12" transform="translate(14.5 206)">600</text><text class="cls-12" transform="translate(14.5 120.62)">900</text><text class="cls-12" transform="translate(39.46 401.02)">2011</text><text class="cls-12" transform="translate(64.52 401.02)">2012</text><text class="cls-12" transform="translate(89.56 401.02)">2013</text><text class="cls-12" transform="translate(114.61 401.02)">2014</text><text class="cls-12" transform="translate(139.67 401.02)">2015</text><text class="cls-12" transform="translate(164.71 401.02)">2016</text><text class="cls-12" transform="translate(189.77 401.02)">2017</text><text class="cls-12" transform="translate(214.82 401.02)">2018</text><text class="cls-12" transform="translate(239.87 401.02)">2019</text><text class="cls-12" transform="translate(264.93 401.02)">2020</text><text class="cls-13" transform="translate(151.35 413.51)"><tspan class="cls-14">Y</tspan><tspan x="5.81" y="0">ear</tspan></text><text class="cls-13" transform="translate(9.45 263.75) rotate(-90)"><tspan class="cls-15">P</tspan><tspan x="6.79" y="0">opulation in Millions</tspan></text><text class="cls-13" transform="translate(306.4 161.74)">Age Group</text><rect class="cls-5" x="307.1" y="169.08" width="15.86" height="15.86"/><rect class="cls-6" x="307.1" y="169.08" width="15.86" height="15.86"/><rect class="cls-7" x="307.1" y="186.36" width="15.86" height="15.86"/><rect class="cls-6" x="307.1" y="186.36" width="15.86" height="15.86"/><rect class="cls-8" x="307.1" y="203.64" width="15.86" height="15.86"/><rect class="cls-6" x="307.1" y="203.64" width="15.86" height="15.86"/><rect class="cls-9" x="307.1" y="220.92" width="15.86" height="15.86"/><rect class="cls-6" x="307.1" y="220.92" width="15.86" height="15.86"/><rect class="cls-10" x="307.1" y="238.2" width="15.86" height="15.86"/><rect class="cls-6" x="307.1" y="238.2" width="15.86" height="15.86"/><rect class="cls-11" x="307.1" y="255.48" width="15.86" height="15.86"/><rect class="cls-6" x="307.1" y="255.48" width="15.86" height="15.86"/><text class="cls-16" transform="translate(329.16 180.24)">0−14 <tspan class="cls-17" x="22.77" y="0">F</tspan><tspan x="28.01" y="0">emales</tspan></text><text class="cls-16" transform="translate(329.16 197.52)">0−14 Males</text><text class="cls-16" transform="translate(329.16 214.8)">15−64 <tspan class="cls-18" x="27.78" y="0">F</tspan><tspan class="cls-19" x="33.01" y="0">emales</tspan></text><text class="cls-16" transform="translate(329.16 232.08)">15−64 Males</text><text class="cls-16" transform="translate(329.16 249.36)">65+ <tspan class="cls-17" x="17.77" y="0">F</tspan><tspan class="cls-19" x="23" y="0">emales</tspan></text><text class="cls-16" transform="translate(329.16 266.64)">65+ Males</text><text class="cls-13" transform="translate(34.44 27.32)">2011−2020</text><text class="cls-20" transform="translate(34.44 11.16)"><tspan class="cls-21">P</tspan><tspan x="8.02" y="0">opulation Gr</tspan><tspan class="cls-22" x="78.84" y="0">o</tspan><tspan x="85.88" y="0">wth in Sub−Saha</tspan><tspan class="cls-23" x="184.53" y="0">r</tspan><tspan x="188.73" y="0">an Af</tspan><tspan class="cls-24" x="219.09" y="0">r</tspan><tspan x="223.6" y="0">ica</tspan></text><text class="cls-16" transform="translate(190.06 427.77)">source: <tspan class="cls-25" x="32.01" y="0">W</tspan><tspan class="cls-19" x="40.25" y="0">o</tspan><tspan class="cls-26" x="45.25" y="0">r</tspan><tspan class="cls-27" x="48.38" y="0">ld Bank Data</tspan></text></svg>